<?xml version="1.0" encoding="UTF-8"?>
<svg xmlns="http://www.w3.org/2000/svg" 
     width="24" height="24" 
     viewBox="0 0 24 24" 
     fill="white">
  <path d="M8.12 3.29a1 1 0 0 0-1.41.21l-4 5.5a1 1 0 0 0 .21 1.41 1 1 0 0 0 1.41-.21L8.44 5h.03l.03.04 2.55 3.5H5a1 1 0 0 0 0 2h1.09l1.25 9.1a3 3 0 0 0 3 2.6h4.32a3 3 0 0 0 3-2.6l1.25-9.1H19a1 1 0 0 0 0-2h-6.05l2.55-3.5.03-.04h.03l4.11 5.7a1 1 0 0 0 1.62-1.2l-4-5.5a1 1 0 0 0-1.41-.21 1 1 0 0 0-.21 1.41l-3.31 4.54L8.33 4.7a1 1 0 0 0-.21-1.41zM9 13a1 1 0 0 1 2 0v4a1 1 0 0 1-2 0v-4zm4 0a1 1 0 0 1 2 0v4a1 1 0 0 1-2 0v-4z"/>
</svg>
